{
    "asset" : {
        "generator" : "Khronos glTF Blender I/O v1.1.46",
        "version" : "2.0"
    },
    "scene" : 0,
    "scenes" : [
        {
            "name" : "Scene",
            "nodes" : [
                0,
                1,
                2,
                3
            ]
        }
    ],
    "nodes" : [
        {
            "mesh" : 0,
            "name" : "pommadier"
        },
        {
            "mesh" : 1,
            "name" : "couvercle",
            "scale" : [
                1.031119704246521,
                1,
                1.031119704246521
            ],
            "translation" : [
                0,
                2.337310791015625,
                0
            ]
        },
        {
            "mesh" : 2,
            "name" : "etiquette",
            "translation" : [
                0,
                0,
                -0.003605308011174202
            ]
        },
        {
            "name" : "Light",
            "rotation" : [
                0.16907575726509094,
                0.7558803558349609,
                -0.27217137813568115,
                0.570947527885437
            ],
            "translation" : [
                4.076245307922363,
                5.903861999511719,
                -1.0054539442062378
            ]
        }
    ],
    "meshes" : [
        {
            "name" : "Cylinder.003",
            "primitives" : [
                {
                    "attributes" : {
                        "POSITION" : 0,
                        "NORMAL" : 1,
                        "TEXCOORD_0" : 2
                    },
                    "indices" : 3
                }
            ]
        },
        {
            "name" : "Cylinder.004",
            "primitives" : [
                {
                    "attributes" : {
                        "POSITION" : 4,
                        "NORMAL" : 5,
                        "TEXCOORD_0" : 6
                    },
                    "indices" : 7
                }
            ]
        },
        {
            "name" : "Cylinder.005",
            "primitives" : [
                {
                    "attributes" : {
                        "POSITION" : 8,
                        "NORMAL" : 9,
                        "TEXCOORD_0" : 10
                    },
                    "indices" : 11
                }
            ]
        }
    ],
    "accessors" : [
        {
            "bufferView" : 0,
            "componentType" : 5126,
            "count" : 2646,
            "max" : [
                1.8311741352081299,
                1.948835849761963,
                1.8311738967895508
            ],
            "min" : [
                -1.8311740159988403,
                -0.4078264534473419,
                -1.8311741352081299
            ],
            "type" : "VEC3"
        },
        {
            "bufferView" : 1,
            "componentType" : 5126,
            "count" : 2646,
            "type" : "VEC3"
        },
        {
            "bufferView" : 2,
            "componentType" : 5126,
            "count" : 2646,
            "type" : "VEC2"
        },
        {
            "bufferView" : 3,
            "componentType" : 5123,
            "count" : 9072,
            "type" : "SCALAR"
        },
        {
            "bufferView" : 4,
            "componentType" : 5126,
            "count" : 1067,
            "max" : [
                1.690796136856079,
                0.3911478817462921,
                1.6907960176467896
            ],
            "min" : [
                -1.6907962560653687,
                -0.6143246293067932,
                -1.6907960176467896
            ],
            "type" : "VEC3"
        },
        {
            "bufferView" : 5,
            "componentType" : 5126,
            "count" : 1067,
            "type" : "VEC3"
        },
        {
            "bufferView" : 6,
            "componentType" : 5126,
            "count" : 1067,
            "type" : "VEC2"
        },
        {
            "bufferView" : 7,
            "componentType" : 5123,
            "count" : 3312,
            "type" : "SCALAR"
        },
        {
            "bufferView" : 8,
            "componentType" : 5126,
            "count" : 33,
            "max" : [
                1.2945566177368164,
                1.250626564025879,
                1.843853235244751
            ],
            "min" : [
                -1.782944679260254,
                -0.05434060096740723,
                0.49264365434646606
            ],
            "type" : "VEC3"
        },
        {
            "bufferView" : 9,
            "componentType" : 5126,
            "count" : 33,
            "type" : "VEC3"
        },
        {
            "bufferView" : 10,
            "componentType" : 5126,
            "count" : 33,
            "type" : "VEC2"
        },
        {
            "bufferView" : 11,
            "componentType" : 5123,
            "count" : 96,
            "type" : "SCALAR"
        }
    ],
    "bufferViews" : [
        {
            "buffer" : 0,
            "byteLength" : 31752,
            "byteOffset" : 0
        },
        {
            "buffer" : 0,
            "byteLength" : 31752,
            "byteOffset" : 31752
        },
        {
            "buffer" : 0,
            "byteLength" : 21168,
            "byteOffset" : 63504
        },
        {
            "buffer" : 0,
            "byteLength" : 18144,
            "byteOffset" : 84672
        },
        {
            "buffer" : 0,
            "byteLength" : 12804,
            "byteOffset" : 102816
        },
        {
            "buffer" : 0,
            "byteLength" : 12804,
            "byteOffset" : 115620
        },
        {
            "buffer" : 0,
            "byteLength" : 8536,
            "byteOffset" : 128424
        },
        {
            "buffer" : 0,
            "byteLength" : 6624,
            "byteOffset" : 136960
        },
        {
            "buffer" : 0,
            "byteLength" : 396,
            "byteOffset" : 143584
        },
        {
            "buffer" : 0,
            "byteLength" : 396,
            "byteOffset" : 143980
        },
        {
            "buffer" : 0,
            "byteLength" : 264,
            "byteOffset" : 144376
        },
        {
            "buffer" : 0,
            "byteLength" : 192,
            "byteOffset" : 144640
        }
    ],
    "buffers" : [
        {
            "byteLength" : 144832,
            "uri" : "data:application/octet-stream;base64,"
        }
    ]
}
